<?xml version="1.0" encoding="UTF-8"?>
<svg width="624" height="764" version="1.1" viewBox="0 0 468 573" xmlns="http://www.w3.org/2000/svg">
  <path d="m305.94 265.78c49.004-24.516 55.671-27.527 83.69-41.965-97.792-36.822-267.91-100.62-267.91-100.62s75.1 177.33 110.98 264.85c16.364-33.628 24.282-52.65 37.282-83.039l58.291 131.15c-63.49 39.189-175.75 33.099-251.35-39.737-89.538-86.267-92.981-228.33-6.3152-318.72 86.667-90.399 229.51-93.745 319.05-7.4776 76.773 73.967 86.925 184.85 49.26 251.07z"
    fill="#0060a0"
    stroke="#003060"
    stroke-linecap="round"
    stroke-linejoin="round"
    stroke-width="15.4"/>
  <g stroke-width=".84675">
    <path d="m21.476 534.61q0-6.3904 2.4609-11.392 2.4609-5.0011 7.0651-7.7399 4.6439-2.7387 10.756-2.7387 8.6924 0 14.17 5.3186 5.5171 5.3186 6.1521 14.448l0.07937 2.9372q0 9.8832-5.5171 15.876-5.5171 5.9537-14.805 5.9537-9.2878 0-14.844-5.9537-5.5171-5.9537-5.5171-16.194zm11.471 0.83353q0 6.1125 2.3021 9.3672 2.3021 3.215 6.5887 3.215 4.1676 0 6.5094-3.1753 2.3418-3.215 2.3418-10.24 0-5.9934-2.3418-9.2878t-6.5887-3.2944q-4.2073 0-6.5094 3.2944-2.3021 3.2547-2.3021 10.121z"/>
    <path d="m116.35 535.4q0 9.9229-4.5248 15.917-4.4852 5.9537-12.146 5.9537-6.5094 0-10.518-4.5248v20.243h-11.471v-59.458h10.637l0.39691 4.2073q4.1676-5.0011 10.875-5.0011 7.9382 0 12.344 5.8743 4.4057 5.8743 4.4057 16.194zm-11.471-0.83352q0-5.9934-2.1433-9.2481-2.1037-3.2547-6.1522-3.2547-5.398 0-7.4223 4.1278v17.583q2.1037 4.247 7.5016 4.247 8.2162 0 8.2162-13.455z"/>
    <path d="m151.68 557.27q-9.4466 0-15.401-5.7949-5.914-5.7949-5.914-15.44v-1.1114q0-6.4697 2.5005-11.55 2.5005-5.1202 7.0651-7.8589 4.6042-2.7784 10.478-2.7784 8.8115 0 13.853 5.5568 5.0805 5.5568 5.0805 15.757v4.6835h-27.348q0.55569 4.2073 3.334 6.7476 2.8181 2.5402 7.1048 2.5402 6.6285 0 10.359-4.8026l5.6362 6.3109q-2.58 3.6516-6.9857 5.7156-4.4057 2.0243-9.764 2.0243zm-1.3099-35.246q-3.4134 0-5.5568 2.3021-2.1037 2.3022-2.699 6.5887h15.956v-0.91289q-0.0794-3.8104-2.0639-5.8743-1.9846-2.1037-5.6362-2.1037z"/>
    <path d="m194.89 513.53 0.35723 4.9614q4.6042-5.7553 12.344-5.7553 6.827 0 10.161 4.0088t3.4134 11.987v27.744h-11.471v-27.466q0-3.6516-1.5876-5.279-1.5876-1.6671-5.279-1.6671-4.8424 0-7.2635 4.1278v30.284h-11.471v-42.946z"/>
    <path d="m247.45 556.48h-7.3429v-42.946h7.3429zm-7.9382-54.338q0-1.7861 1.0716-3.0166 1.1114-1.2304 3.2547-1.2304t3.2547 1.2304 1.1114 3.0166-1.1114 2.9768q-1.1114 1.1908-3.2547 1.1908t-3.2547-1.1908q-1.0716-1.1908-1.0716-2.9768z"/>
    <path d="m274.61 513.53 0.23815 5.398q4.9218-6.1919 12.86-6.1919 13.615 0 13.733 15.36v28.38h-7.3429v-28.419q-0.0397-4.6439-2.1433-6.8666-2.0639-2.2228-6.4697-2.2228-3.5723 0-6.2713 1.9052t-4.2073 5.0011v30.602h-7.3429v-42.946z"/>
    <path d="m357.26 535.48q0 9.8038-4.4852 15.797-4.4851 5.9934-12.146 5.9934-7.8192 0-12.304-4.9614v20.679h-7.3429v-59.458h6.7078l0.35722 4.763q4.4852-5.5568 12.463-5.5568 7.7399 0 12.225 5.8347 4.5248 5.8347 4.5248 16.234zm-7.3429-0.83352q0-7.2635-3.096-11.471-3.0959-4.2073-8.4939-4.2073-6.6681 0-10.002 5.914v20.521q3.2944 5.8743 10.082 5.8743 5.279 0 8.3749-4.1676 3.1356-4.2073 3.1356-12.463z"/>
    <path d="m401.58 552.22q-4.2867 5.0408-12.583 5.0408-6.8666 0-10.478-3.9691-3.5723-4.0089-3.6119-11.829v-27.943h7.3429v27.744q0 9.764 7.9382 9.764 8.4146 0 11.193-6.2712v-31.237h7.3429v42.946h-6.9857z"/>
    <path d="m438.3 503.13v10.399h8.0177v5.6758h-8.0177v26.633q0 2.58 1.0717 3.8897 1.0717 1.2701 3.6516 1.2701 1.2701 0 3.4929-0.47631v5.9537q-2.8975 0.79383-5.6362 0.79383-4.9218 0-7.4223-2.9768t-2.5005-8.4543v-26.633h-7.8192v-5.6758h7.8192v-10.399z"/>
  </g>
</svg>
